:SAMPLES-PER-SECOND 30
:FULLY-SPECIFIED
:DEGREES
93
root  6.1963 39.2776 -7.32368 -0.855697 -82.3852 -6.21986
RightUpLeg  -14.8343 -9.5933 -7.50976
RightLeg  71.7647 -3.10727 -11.4516
RightFoot  4.70328 0.116923 -0.566881
RightToes  1.16414e-010 0 -3.6325e-017
Spine  10.7991 -0.0445948 -2.59847
Spine1  4.86188 -0.222899 0.682353
HEad  -13.1884 21.3393 -11.6195
LeftShoulder1  7.23173 -10.8442 -43.8615
LeftArm  -58.4093 5.69227 -5.68163
LeftForeArm  -18.0485 -39.7658 -10.342
LeftHand  -0.244104 0.0205437 5.32207
RightShoulder  4.57622 7.68697 34.9317
RightArm  -10.1547 -18.7663 32.856
RightForeArm  -6.18469 28.4051 6.4708
RightHand  -2.5058 7.33122 -22.8919
LeftUpLeg  -5.98667 8.71285 -8.37119
LeftLeg  23.7642 6.56866 3.60215
LeftFoot  -10.4612 -0.0234962 12.404
LeftToes  -6.45774e-011 3.08606e-011 -5.1752e-012
94
root  4.90802 40.3501 -6.84082 11.5565 -80.9028 -17.8796
RightUpLeg  -19.5437 -9.22324 -4.1177
RightLeg  66.2125 -3.7958 -10.0692
RightFoot  3.43716 -0.0927991 0.899269
RightToes  1.16414e-010 0 -3.6325e-017
Spine  9.79793 -0.513415 -0.130699
Spine1  4.15534 -0.930096 2.19481
HEad  -10.5197 21.0282 -9.84719
LeftShoulder1  7.0039 -10.7521 -42.6866
LeftArm  -54.8005 5.51498 -7.16641
LeftForeArm  -14.6855 -40.6376 -10.468
LeftHand  -0.244104 0.0205437 5.32207
RightShoulder  4.4865 7.69531 34.1126
RightArm  -10.7932 -20.9653 32.5073
RightForeArm  -7.27081 29.3639 6.76417
RightHand  -2.54358 7.3622 -23.1684
LeftUpLeg  -0.516356 10.3109 -5.18221
LeftLeg  15.5885 2.13269 0.374453
LeftFoot  -6.66693 -0.278745 8.05057
LeftToes  -6.45774e-011 3.08606e-011 -5.1752e-012
95
root  3.66701 41.1244 -6.46895 13.8957 -77.7845 -18.9647
RightUpLeg  -23.7498 -10.7626 -1.73417
RightLeg  59.5612 -4.06321 -7.93878
RightFoot  2.01537 -0.256712 2.30942
RightToes  1.16414e-010 0 -3.6325e-017
Spine  9.47757 -1.10172 -0.472275
Spine1  2.2556 -2.30689 5.80384
HEad  -8.59604 20.1853 -7.16194
LeftShoulder1  6.54139 -10.343 -40.9187
LeftArm  -50.5932 4.73589 -8.57353
LeftForeArm  -11.8882 -42.6691 -11.0513
LeftHand  -0.244104 0.0205437 5.32207
RightShoulder  4.46431 7.88125 33.2693
RightArm  -10.8018 -23.7099 31.258
RightForeArm  -8.26082 31.5612 7.38184
RightHand  -2.51992 7.23218 -23.1882
LeftUpLeg  2.48698 7.6967 -2.42015
LeftLeg  11.2865 1.92571 -1.75259
LeftFoot  -5.17519 0.0111008 0.0472269
LeftToes  -6.45774e-011 3.08606e-011 -5.1752e-012
96
root  2.52163 41.5159 -6.16899 11.6293 -74.1161 -16.0498
RightUpLeg  -26.9388 -13.0441 -0.363875
RightLeg  52.5559 -3.9054 -5.84431
RightFoot  0.711713 -0.366486 3.51086
RightToes  1.16414e-010 0 -3.6325e-017
Spine  10.6091 -1.55586 -2.09172
Spine1  0.244663 -3.56026 9.74487
HEad  -8.69644 18.3521 -4.0028
LeftShoulder1  5.98263 -9.86668 -38.5589
LeftArm  -47.0861 2.42513 -9.83008
LeftForeArm  -8.92388 -45.5018 -11.9885
LeftHand  -0.244104 0.0205437 5.32207
RightShoulder  4.40008 7.96479 32.4249
RightArm  -11.7504 -26.3522 29.9779
RightForeArm  -8.04741 34.7424 8.24751
RightHand  -2.63838 7.5032 -23.7395
LeftUpLeg  4.43716 6.53573 -0.475463
LeftLeg  9.49768 4.50956 -1.89612
LeftFoot  -6.23312 0.306773 -6.03787
LeftToes  -6.45774e-011 3.08606e-011 -5.1752e-012
97
root  1.4219 41.4545 -5.86439 9.45537 -71.0826 -14.2548
RightUpLeg  -28.7716 -14.7087 0.528318
RightLeg  45.4242 -3.37156 -3.97448
RightFoot  0.112362 -0.479625 4.78474
RightToes  1.16414e-010 0 -3.6325e-017
Spine  12.5624 -1.54102 -2.57126
Spine1  -0.848255 -3.90106 11.5869
HEad  -10.3067 15.4257 -1.26039
LeftShoulder1  5.58433 -9.83955 -35.7726
LeftArm  -44.7272 -1.32028 -10.5784
LeftForeArm  -6.44265 -48.043 -12.9328
LeftHand  -0.244104 0.0205437 5.32207
RightShoulder  4.16165 7.74323 31.0477
RightArm  -14.5002 -28.8121 30.0973
RightForeArm  -7.20218 38.3533 9.29551
RightHand  -2.92991 8.18004 -24.997
LeftUpLeg  6.71639 6.12969 1.01274
LeftLeg  8.41271 10.3277 -1.53261
LeftFoot  -7.69259 0.222572 -5.38192
LeftToes  -6.45774e-011 3.08606e-011 -5.1752e-012
98
root  0.287009 40.9563 -5.52615 7.44514 -68.5429 -13.0254
RightUpLeg  -29.7281 -16.5114 1.36663
RightLeg  38.4632 -2.33544 -2.26639
RightFoot  -0.31403 -0.548575 5.65243
RightToes  1.16414e-010 0 -3.6325e-017
Spine  14.3076 -1.41729 -2.25211
Spine1  -1.2272 -3.86977 12.0017
HEad  -11.9105 12.2493 0.548812
LeftShoulder1  5.28331 -10.0842 -32.832
LeftArm  -43.5174 -5.67848 -10.7149
LeftForeArm  -5.24136 -49.6169 -13.5991
LeftHand  -0.244104 0.0205437 5.32207
RightShoulder  3.73585 7.23975 28.7758
RightArm  -17.8337 -30.837 31.7257
RightForeArm  -6.98054 41.9565 10.5058
RightHand  -3.21415 8.73348 -26.295
LeftUpLeg  8.8566 6.36964 1.9065
LeftLeg  8.67253 14.5444 -1.48525
LeftFoot  -10.003 0.0727924 -0.0844478
LeftToes  -6.45774e-011 3.08606e-011 -5.1752e-012
99
root  -0.933061 40.2415 -5.18675 4.16549 -65.928 -10.37
RightUpLeg  -30.2071 -19.484 1.89393
RightLeg  31.9235 -0.797875 -0.77709
RightFoot  -0.639866 -0.536331 5.6723
RightToes  1.16414e-010 0 -3.6325e-017
Spine  15.6792 -1.45702 -3.43157
Spine1  -1.42689 -4.34405 13.501
HEad  -12.9441 10.1496 1.81892
LeftShoulder1  4.89811 -9.84876 -30.6257
LeftArm  -43.495 -10.1689 -10.1841
LeftForeArm  -4.69983 -50.3483 -13.9287
LeftHand  -0.244104 0.0205437 5.32207
RightShoulder  3.29805 6.57666 26.6692
RightArm  -19.8372 -31.2213 32.8729
RightForeArm  -7.56026 44.7822 11.6096
RightHand  -3.36161 8.94528 -27.0558
LeftUpLeg  10.7963 7.12823 2.01406
LeftLeg  10.5842 13.916 -1.46301
LeftFoot  -14.5561 0.16995 3.31276
LeftToes  -6.45774e-011 3.08606e-011 -5.1752e-012
100
root  -2.30972 39.5592 -4.86011 -0.916556 -64.0315 -5.71323
RightUpLeg  -30.0806 -22.3627 1.60497
RightLeg  26.5075 0.39417 0.00460699
RightFoot  -0.810878 -0.544138 5.84326
RightToes  1.16414e-010 0 -3.6325e-017
Spine  16.6169 -1.2519 -6.87844
Spine1  -1.30054 -5.10416 16.238
HEad  -13.6147 9.76453 3.23551
LeftShoulder1  4.62423 -9.19534 -30.3625
LeftArm  -44.4511 -13.919 -8.66592
LeftForeArm  -3.97039 -50.731 -14.0733
LeftHand  -0.244104 0.0205437 5.32207
RightShoulder  3.06811 5.95732 26.3746
RightArm  -20.2165 -28.9977 31.9489
RightForeArm  -8.01092 45.4841 11.928
RightHand  -3.41179 9.05917 -27.2331
LeftUpLeg  13.2554 7.96926 1.31724
LeftLeg  12.8315 10.9774 -1.42807
LeftFoot  -19.5444 0.307546 2.74418
LeftToes  -6.45774e-011 3.08606e-011 -5.1752e-012
101
root  -3.89605 38.9981 -4.46454 -6.30114 -64.0345 -0.505995
RightUpLeg  -29.275 -23.4795 1.20778
RightLeg  23.1741 0.553392 0.0480395
RightFoot  -1.39861 -0.632936 7.16496
RightToes  1.16414e-010 0 -3.6325e-017
Spine  16.2285 -0.810767 -9.97506
Spine1  -0.369111 -5.43123 17.6614
HEad  -13.3863 10.504 4.70402
LeftShoulder1  4.78223 -9.05305 -32.0217
LeftArm  -45.492 -15.1034 -6.61373
LeftForeArm  -3.13564 -51.2514 -14.2853
LeftHand  -0.244104 0.0205437 5.32207
RightShoulder  3.12326 5.68797 27.9588
RightArm  -20.3291 -25.151 30.1564
RightForeArm  -7.94067 43.3338 11.0839
RightHand  -3.45366 9.32312 -27.0819
LeftUpLeg  16.1338 8.85728 0.230634
LeftLeg  14.6228 9.6776 -1.17579
LeftFoot  -22.3395 0.211363 0.773857
LeftToes  -6.45774e-011 3.08606e-011 -5.1752e-012
102
root  -5.66575 38.5978 -3.92336 -10.0563 -65.7001 3.53881
RightUpLeg  -27.8673 -23.3261 2.10392
RightLeg  21.7977 0.671913 0.0850324
RightFoot  -1.94363 -0.622862 7.39097
RightToes  1.16414e-010 0 -3.6325e-017
Spine  13.8691 -0.833712 -9.9155
Spine1  1.23861 -5.27807 16.2367
HEad  -11.3852 11.2769 5.37448
LeftShoulder1  5.32134 -9.60157 -34.5311
LeftArm  -45.4032 -12.9672 -5.33018
LeftForeArm  -2.80987 -51.9221 -14.6217
LeftHand  -0.244104 0.0205437 5.32207
RightShoulder  3.33826 5.84634 29.7279
RightArm  -20.8646 -22.0479 29.6721
RightForeArm  -8.41474 39.444 9.71993
RightHand  -3.51755 9.69982 -26.9047
LeftUpLeg  18.9086 10.9602 -0.124046
LeftLeg  15.8436 9.29646 -0.641723
LeftFoot  -22.8056 -0.0106285 -1.45334
LeftToes  -6.45774e-011 3.08606e-011 -5.1752e-012
103
root  -7.56464 38.3439 -3.32472 -11.0227 -67.7976 5.27625
RightUpLeg  -26.3869 -22.0669 4.32807
RightLeg  22.141 0.928845 0.212752
RightFoot  -1.42856 -0.214415 2.50557
RightToes  1.16414e-010 0 -3.6325e-017
Spine  10.3326 -1.40123 -7.04434
Spine1  2.88079 -5.02225 13.5214
HEad  -8.07534 11.7196 4.77655
LeftShoulder1  5.88102 -10.0796 -37.1726
LeftArm  -44.1814 -8.87271 -5.36783
LeftForeArm  -3.38994 -52.2523 -14.8481
LeftHand  -0.244104 0.0205437 5.32207
RightShoulder  3.53712 6.18762 30.5404
RightArm  -20.9881 -20.8377 30.7502
RightForeArm  -10.4694 35.9335 8.7206
RightHand  -3.53397 9.89156 -26.7025
LeftUpLeg  21.1088 16.6772 2.34642
LeftLeg  17.8711 4.47779 -0.198122
LeftFoot  -22.025 -0.398998 -5.70842
LeftToes  -6.45774e-011 3.08606e-011 -5.1752e-012
